# xmcd CD database file
#
# Track frame offsets:
#	150
#	19499
#	35586
#	56750
#	78652
#	92394
#	108477
#	116849
#	139587
#	153345
#	173532
#	193847
#	208565
#
# Disc length: 3071 seconds
#
# Revision: 0
# Processed by: cddbd v1.5.2PL0 Copyright (c) Steve Scherf et al.
# Submitted via: CDex 1.51
#
DISCID=af0bfd0d
DTITLE=Love Eternal -  Healing
DYEAR=2008
DGENRE=New Age
TTITLE0=Take you in
TTITLE1=OneStep
TTITLE2=Rise Up
TTITLE3=Up From Here
TTITLE4=Give it up for Love
TTITLE5=Let it Start With Me
TTITLE6=Aboriginal Soul
TTITLE7=Evolution Song
TTITLE8=Feeling Better
TTITLE9=Call On Me
TTITLE10=We are One
TTITLE11=Peaceful Shall Prevail
TTITLE12=Healing
EXTD=YEAR: 2008
EXTT0=
EXTT1=
EXTT2=
EXTT3=
EXTT4=
EXTT5=
EXTT6=
EXTT7=
EXTT8=
EXTT9=
EXTT10=
EXTT11=
EXTT12=
PLAYORDER=
